<?xml version="1.0" encoding="iso-8859-1"?>
<!-- Uploaded to: SVG Repo, www.svgrepo.com, Generator: SVG Repo Mixer Tools -->
<svg height="800px" width="800px" version="1.1" id="Layer_1" xmlns="http://www.w3.org/2000/svg" xmlns:xlink="http://www.w3.org/1999/xlink" 
	 viewBox="0 0 511.988 511.988" xml:space="preserve">
<g>
	<path style="fill:#4A89DC;" d="M501.334,245.33h-70.249l35.125-35.124c4.156-4.164,4.156-10.922,0-15.085
		c-4.172-4.164-10.938-4.164-15.094,0l-50.218,50.209H266.659V111.083l50.21-50.209c4.156-4.164,4.156-10.921,0-15.085
		s-10.921-4.164-15.093,0l-35.117,35.124V10.664C266.659,4.773,261.886,0,255.995,0s-10.663,4.773-10.663,10.664v70.248
		l-35.125-35.124c-4.164-4.164-10.921-4.164-15.085,0s-4.164,10.921,0,15.085l50.21,50.209v134.247H111.085l-50.21-50.209
		c-4.164-4.164-10.922-4.164-15.086,0s-4.164,10.921,0,15.085l35.124,35.124H10.665c-5.891,0-10.664,4.773-10.664,10.664
		s4.773,10.664,10.664,10.664h70.248l-35.124,35.117c-4.164,4.172-4.164,10.938,0,15.093c2.086,2.094,4.812,3.125,7.547,3.125
		c2.727,0,5.461-1.031,7.539-3.125l50.21-50.209h134.247v134.239l-50.21,50.217c-4.164,4.156-4.164,10.906,0,15.094
		c2.078,2.062,4.812,3.125,7.539,3.125c2.733,0,5.46-1.062,7.546-3.125l35.125-35.124v70.248c0,5.875,4.772,10.656,10.663,10.656
		c5.891,0,10.664-4.781,10.664-10.656v-70.248l35.117,35.124c2.094,2.062,4.812,3.125,7.562,3.125c2.719,0,5.452-1.062,7.53-3.125
		c4.156-4.172,4.156-10.938,0-15.094l-50.21-50.217V266.658h134.239l50.218,50.209c2.078,2.094,4.812,3.125,7.531,3.125
		c2.75,0,5.469-1.031,7.562-3.125c4.156-4.155,4.156-10.921,0-15.093l-35.125-35.116h70.249c5.874,0,10.655-4.773,10.655-10.664
		C511.987,250.103,507.208,245.33,501.334,245.33z"/>
	<path style="fill:#4A89DC;" d="M373.337,149.332c0,5.89-4.781,10.664-10.688,10.664c-5.875,0-10.656-4.773-10.656-10.664
		s4.781-10.671,10.656-10.671C368.556,138.661,373.337,143.442,373.337,149.332z"/>
	<path style="fill:#4A89DC;" d="M159.998,362.648c0,5.905-4.773,10.687-10.664,10.687s-10.672-4.781-10.672-10.687
		c0-5.875,4.781-10.656,10.672-10.656S159.998,356.773,159.998,362.648z"/>
	<path style="fill:#4A89DC;" d="M149.334,373.335c-2.734,0-5.461-1.062-7.547-3.125c-4.164-4.172-4.164-10.937,0-15.093
		l213.331-213.331c4.156-4.164,10.922-4.164,15.094,0c4.156,4.164,4.156,10.921,0,15.085L156.873,370.21
		C154.795,372.272,152.06,373.335,149.334,373.335z"/>
	<path style="fill:#4A89DC;" d="M362.649,373.335c-5.875,0-10.656-4.781-10.656-10.687c0-5.875,4.781-10.656,10.656-10.656
		c5.906,0,10.688,4.781,10.688,10.656C373.337,368.554,368.556,373.335,362.649,373.335z"/>
	<path style="fill:#4A89DC;" d="M149.334,159.996c-5.891,0-10.672-4.773-10.672-10.664s4.781-10.671,10.672-10.671
		s10.664,4.781,10.664,10.671C159.998,155.223,155.224,159.996,149.334,159.996z"/>
	<path style="fill:#4A89DC;" d="M362.649,373.335c-2.719,0-5.453-1.062-7.531-3.125L141.787,156.871
		c-4.164-4.164-4.164-10.921,0-15.085c4.172-4.164,10.922-4.164,15.086,0l213.339,213.331c4.156,4.156,4.156,10.921,0,15.093
		C368.118,372.272,365.399,373.335,362.649,373.335z"/>
</g>
<g>
	<polygon style="fill:#5D9CEC;" points="256.011,170.683 341.337,255.994 256.011,341.305 170.559,255.994 	"/>
	<path style="fill:#5D9CEC;" d="M362.712,181.332c17.672,0,32-14.328,32-32c0-17.679-14.328-32-32-32s-31.999,14.32-31.999,32
		C330.713,167.004,345.04,181.332,362.712,181.332z"/>
	<path style="fill:#5D9CEC;" d="M362.712,330.648c-17.672,0-31.999,14.344-31.999,32c0,17.687,14.327,31.999,31.999,31.999
		s32-14.312,32-31.999C394.712,344.992,380.384,330.648,362.712,330.648z"/>
	<path style="fill:#5D9CEC;" d="M149.334,330.648c-17.672,0-31.999,14.344-31.999,32c0,17.687,14.327,31.999,31.999,31.999
		c17.671,0,31.999-14.312,31.999-31.999C181.333,344.992,167.005,330.648,149.334,330.648z"/>
	<path style="fill:#5D9CEC;" d="M149.334,117.333c-17.672,0-31.999,14.32-31.999,32c0,17.671,14.327,32,31.999,32
		c17.671,0,31.999-14.328,31.999-32C181.333,131.653,167.005,117.333,149.334,117.333z"/>
</g>
</svg>